<?xml version="1.0" encoding="UTF-8" standalone="no"?>
<!-- Generator: Adobe Illustrator 19.0.0, SVG Export Plug-In . SVG Version: 6.00 Build 0)  -->

<svg
   xmlns:dc="http://purl.org/dc/elements/1.1/"
   xmlns:cc="http://creativecommons.org/ns#"
   xmlns:rdf="http://www.w3.org/1999/02/22-rdf-syntax-ns#"
   xmlns:svg="http://www.w3.org/2000/svg"
   xmlns="http://www.w3.org/2000/svg"
   xmlns:sodipodi="http://sodipodi.sourceforge.net/DTD/sodipodi-0.dtd"
   xmlns:inkscape="http://www.inkscape.org/namespaces/inkscape"
   version="1.1"
   id="Warstwa_2"
   x="0px"
   y="0px"
   viewBox="0 0 343 164"
   xml:space="preserve"
   sodipodi:docname="logort.svg"
   width="343"
   height="164"
   inkscape:version="0.92.3 (2405546, 2018-03-11)"><metadata
   id="metadata3761"><rdf:RDF><cc:Work
       rdf:about=""><dc:format>image/svg+xml</dc:format><dc:type
         rdf:resource="http://purl.org/dc/dcmitype/StillImage" /><dc:title></dc:title></cc:Work></rdf:RDF></metadata><defs
   id="defs3759" /><sodipodi:namedview
   pagecolor="#ffffff"
   bordercolor="#666666"
   borderopacity="1"
   objecttolerance="10"
   gridtolerance="10"
   guidetolerance="10"
   inkscape:pageopacity="0"
   inkscape:pageshadow="2"
   inkscape:window-width="1920"
   inkscape:window-height="1017"
   id="namedview3757"
   showgrid="false"
   inkscape:zoom="0.5855728"
   inkscape:cx="453.0535"
   inkscape:cy="77.336354"
   inkscape:window-x="-8"
   inkscape:window-y="-8"
   inkscape:window-maximized="1"
   inkscape:current-layer="Warstwa_2" />
<style
   type="text/css"
   id="style3738">
	.st0{fill:#AFAFAF;}
	.st1{fill:#00ADB5;}
</style>
<g
   id="XMLID_13_"
   transform="translate(-86.943396,-130.34904)">
	<path
   id="XMLID_19_"
   class="st0"
   d="m 159.6,260.1 -36.8,-18 c -9.4,12.8 -14.6,21.3 -15.7,25.4 -0.8,2.9 -2.5,5.4 -5.2,7.4 -2.7,2 -4.6,3 -5.8,3 -3.3,0 -5,-1.3 -5,-3.8 0,-1.4 2,-5.5 5.9,-12.4 3.9,-6.8 9.4,-14.8 16.3,-24.1 -3.8,-1.6 -6.2,-2.6 -7.1,-3.1 -0.9,-0.5 -1.3,-1.5 -1.1,-3 0.2,-1.5 1.3,-3.8 3.4,-6.9 1.8,-2.7 3.2,-4.6 4.1,-5.5 0.9,-0.9 2,-1.7 3.2,-2.2 1.2,-0.6 2.5,-0.9 3.9,-1.1 1.4,-0.2 5.2,-0.7 11.5,-1.5 5.1,-7 10.7,-14.5 16.7,-22.6 6,-8.1 10.7,-14.4 14.1,-18.8 -10.2,1.4 -17.4,2.5 -21.4,3.4 -4.3,0.8 -7.9,1.5 -10.8,2.1 -2.9,0.6 -4.9,1 -6.1,1.5 -1.2,0.4 -1.8,1 -1.8,1.8 0,0.7 0.7,1.2 2.1,1.5 1.4,0.3 3.2,0.4 5.4,0.4 2.2,0 3.9,0.1 5.1,0.2 1.2,0.2 1.8,0.5 1.8,1.1 0,0.7 -0.8,1 -2.4,1.1 -1.6,0.1 -6.1,0.3 -13.4,0.6 -4.2,0.1 -7.7,0.3 -10.5,0.4 -2.8,0.1 -4.8,0.2 -5.9,0.2 -1.5,0 -2.7,-0.5 -3.5,-1.4 -0.8,-0.9 -1.3,-2.1 -1.3,-3.6 0,-1.1 0.6,-3.2 1.9,-6.2 1.2,-3 3,-6 5.3,-9.1 2.3,-3.1 4.9,-5.4 7.8,-7.1 3.3,-2 8.5,-4.1 15.5,-6.1 7,-2.1 14.8,-3.7 23.3,-5 8.6,-1.3 17,-1.9 25.4,-1.9 5.1,0 10,0.3 14.9,0.9 4.8,0.6 9.2,1.3 13.2,2.1 3.9,0.8 7,1.7 9.3,2.5 5.9,2 10.5,4.9 13.6,8.9 3.2,4 4.7,8.3 4.7,13.1 0,4.6 -0.8,9.1 -2.4,13.5 -1.6,4.4 -4,8.5 -7.3,12.2 -3.3,3.7 -7.2,6.8 -11.9,9.1 -3.8,2 -9.5,3.9 -17.2,6 -7.7,2 -17,3.8 -27.8,5.4 -10.9,1.6 -23,2.7 -36.4,3.4 10,3.5 19.4,7 28.1,10.6 8.7,3.5 16,6.7 22,9.5 6,2.8 10.6,5 14,6.8 4.8,2.5 7.8,4.3 9.3,5.4 1.4,1.1 2.4,2.5 2.8,4.3 0.5,1.8 0.7,4.7 0.7,8.7 0,4.6 -0.3,7.9 -0.8,10.1 -0.6,2.2 -1.7,3.3 -3.6,3.3 -0.6,0 -2.1,-0.6 -4.6,-1.9 -2.5,-1.3 -6,-3.1 -10.4,-5.6 -4.4,-2.4 -8.4,-4.6 -12.1,-6.5 -3.5,-1.9 -9.2,-4.8 -17,-8.5 z m 8.6,-88.2 c 0.1,0.5 0.1,0.9 0.1,1.3 0,0.4 0,0.9 0,1.7 0,1.8 -0.6,3.9 -1.7,6.3 -1.1,2.4 -2.6,4.8 -4.4,7.3 -1.8,2.5 -4.5,6.1 -8,10.7 -3.5,4.7 -6.8,8.9 -9.8,12.8 13.7,-2.6 25.3,-5.1 35,-7.5 9.7,-2.4 17.6,-4.8 23.9,-7.3 6.3,-2.5 11,-5 14.1,-7.7 3.2,-2.7 4.7,-5.5 4.7,-8.4 0,-3.3 -3.3,-5.8 -9.9,-7.7 -6.6,-1.9 -14.7,-2.8 -24.3,-2.8 -2,0 -4,0 -6.2,0.1 -2.2,0.1 -4.8,0.3 -7.8,0.6 -3,0.3 -4.9,0.5 -5.7,0.6 z"
   inkscape:connector-curvature="0"
   style="fill:#afafaf" />
	<path
   id="XMLID_22_"
   class="st0"
   d="m 379,249.6 3.2,2.4 c -0.8,1.8 -1.7,3.4 -2.4,4.8 -0.7,1.4 -1.7,3 -2.8,5 -1.1,2 -2,3.4 -2.5,4.4 -4.9,8.5 -9.5,12.8 -13.8,12.8 -1.8,0 -3.4,-0.7 -4.7,-2.1 -1.3,-1.4 -2,-3.4 -2,-5.9 0,-3.5 1.3,-8.3 3.8,-14.5 2.5,-6.1 6.4,-13.7 11.6,-22.6 5.2,-9 11.8,-19.1 19.8,-30.4 7.9,-11.3 16.9,-23.3 26.9,-35.8 -5.7,-0.8 -12.5,-1.3 -20.4,-1.3 -9,0 -19.1,1 -30.2,3 -11.1,2 -20.8,4.3 -29,7 -8.2,2.6 -12.4,4.6 -12.4,5.8 0,0.5 0.2,0.8 0.5,0.9 0.3,0.2 0.9,0.3 1.6,0.4 0.7,0.1 1.7,0.2 2.9,0.3 7.6,1 11.4,2.2 11.4,3.5 0,0.7 -1.7,1 -5,0.9 -3.3,0 -7.3,0 -12,0 -3.7,0 -6.4,-0.1 -8.1,-0.4 -1.7,-0.3 -2.8,-0.8 -3.3,-1.7 -0.6,-0.8 -0.8,-2.1 -0.8,-3.8 0,-1.1 0.3,-3.5 1,-7.2 1.2,-6.9 3.1,-12.4 5.7,-16.6 2.6,-4.2 6.5,-7.6 11.8,-10.2 5.3,-2.6 12.6,-4.7 21.9,-6.3 15.6,-2.7 28.5,-4 38.8,-4 7.6,0 13.5,0.3 17.9,0.9 4.4,0.6 7.6,1.5 9.6,2.7 2,1.2 3.4,2.3 3.9,3.5 0.6,1.1 1.3,3.1 2.2,5.9 l 3,9 c 0.2,0.6 0.4,1.1 0.5,1.4 0.1,0.4 0.2,0.7 0.3,1.1 0.1,0.4 0.1,0.7 0.1,1.1 0,2.5 -0.6,4.8 -1.7,6.8 -1.1,2 -3.2,5 -6.3,9.1 -3,4 -5.3,7.2 -6.7,9.5 -16.8,27.4 -28.2,47.5 -34.3,60.6 z"
   inkscape:connector-curvature="0"
   style="fill:#afafaf" />
</g>
<g
   id="XMLID_2_"
   transform="translate(-86.943396,-130.34904)">
	<path
   id="XMLID_6_"
   class="st0"
   d="m 299.1,272.5 c 0,0 1.6,-6 7.8,-5.8 0,0 2.6,0.5 -1.1,6.4 0,0 -4.9,2.3 -6.7,-0.6 z"
   inkscape:connector-curvature="0"
   style="fill:#afafaf" />
	<circle
   id="XMLID_4_"
   class="st0"
   cx="291.60001"
   cy="266.79999"
   r="1.5"
   style="fill:#afafaf" />
	<circle
   id="XMLID_3_"
   class="st0"
   cx="304.29999"
   cy="257.29999"
   r="1.5"
   style="fill:#afafaf" />
	<path
   id="XMLID_7_"
   class="st0"
   d="m 286.7,290 c 0,0 -15.7,-11.2 -18.6,-23.9 0,0 -2.2,2 -20.5,-24.3 -18.3,-26.3 -10.2,-29.7 -10.2,-29.7 0,0 9.5,-1.7 31.6,30.8 l 6.4,7.4 c 0,0 2.6,-9 19.3,-14.7 0,0 -32.4,-37.5 -25.1,-47.3 7.3,-9.8 43,45.4 43,45.4 0,0 11.8,8.2 16.9,24.9 0,0 23.9,-43.7 -21.4,-77.5 0,0 -33.3,-21.9 -68.1,3.3 -34.8,25.2 -20.3,65 -20.3,65 0,0 6.7,24 30.4,36.2 23.7,12.2 36.6,4.4 36.6,4.4 z"
   inkscape:connector-curvature="0"
   style="fill:#afafaf" />
</g>
<g
   id="XMLID_8_"
   transform="translate(-86.943396,-130.34904)">
	<path
   id="XMLID_5_"
   class="st1"
   d="m 283.8,290 c 0,0 -15.7,-11.2 -18.6,-23.9 0,0 -2.2,2 -20.5,-24.3 -18.3,-26.3 -10.2,-29.7 -10.2,-29.7 0,0 9.5,-1.7 31.6,30.8 l 6.4,7.4 c 0,0 2.6,-9 19.3,-14.7 0,0 -32.4,-37.5 -25.1,-47.3 7.3,-9.8 43,45.4 43,45.4 0,0 11.8,8.2 16.9,24.9 0,0 23.9,-43.7 -21.4,-77.5 0,0 -33.3,-21.9 -68.1,3.3 -34.8,25.2 -20.3,65 -20.3,65 0,0 6.7,24 30.4,36.2 23.7,12.2 36.6,4.4 36.6,4.4 z"
   inkscape:connector-curvature="0"
   style="fill:#00adb5" />
	<path
   id="XMLID_10_"
   class="st1"
   d="m 297.6,272.5 c 0,0 1.6,-6 7.8,-5.8 0,0 2.6,0.5 -1.1,6.4 0,0 -4.9,2.3 -6.7,-0.6 z"
   inkscape:connector-curvature="0"
   style="fill:#00adb5" />
	<circle
   id="XMLID_9_"
   class="st1"
   cx="290.10001"
   cy="266.79999"
   r="1.5"
   style="fill:#00adb5" />
	<circle
   id="XMLID_11_"
   class="st1"
   cx="302.79999"
   cy="257.29999"
   r="1.5"
   style="fill:#00adb5" />
</g>
<g
   id="XMLID_1_"
   transform="translate(-86.943396,-130.34904)">
	<path
   id="XMLID_14_"
   class="st1"
   d="m 156.6,260.1 -36.8,-18 c -9.4,12.8 -14.6,21.3 -15.7,25.4 -0.8,2.9 -2.5,5.4 -5.2,7.4 -2.7,2 -4.6,3 -5.8,3 -3.3,0 -5,-1.3 -5,-3.8 0,-1.4 2,-5.5 5.9,-12.4 3.9,-6.8 9.4,-14.8 16.3,-24.1 -3.8,-1.6 -6.2,-2.6 -7.1,-3.1 -0.9,-0.5 -1.3,-1.5 -1.1,-3 0.2,-1.5 1.3,-3.8 3.4,-6.9 1.8,-2.7 3.2,-4.6 4.1,-5.5 0.9,-0.9 2,-1.7 3.2,-2.2 1.2,-0.6 2.5,-0.9 3.9,-1.1 1.4,-0.2 5.2,-0.7 11.5,-1.5 5.1,-7 10.7,-14.5 16.7,-22.6 6,-8.1 10.7,-14.4 14.1,-18.8 -10.2,1.4 -17.4,2.5 -21.4,3.4 -4.3,0.8 -7.9,1.5 -10.8,2.1 -2.9,0.6 -4.9,1 -6.1,1.5 -1.2,0.4 -1.8,1 -1.8,1.8 0,0.7 0.7,1.2 2.1,1.5 1.4,0.3 3.2,0.4 5.4,0.4 2.2,0 3.9,0.1 5.1,0.2 1.2,0.2 1.8,0.5 1.8,1.1 0,0.7 -0.8,1 -2.4,1.1 -1.6,0.1 -6.1,0.3 -13.4,0.6 -4.2,0.1 -7.7,0.3 -10.5,0.4 -2.8,0.1 -4.8,0.2 -5.9,0.2 -1.5,0 -2.7,-0.5 -3.5,-1.4 -0.8,-0.9 -1.3,-2.1 -1.3,-3.6 0,-1.1 0.6,-3.2 1.9,-6.2 1.2,-3 3,-6 5.3,-9.1 2.3,-3.1 4.9,-5.4 7.8,-7.1 3.3,-2 8.5,-4.1 15.5,-6.1 7,-2.1 14.8,-3.7 23.3,-5 8.6,-1.3 17,-1.9 25.4,-1.9 5.1,0 10,0.3 14.9,0.9 4.8,0.6 9.2,1.3 13.2,2.1 3.9,0.8 7,1.7 9.3,2.5 5.9,2 10.5,4.9 13.6,8.9 3.2,4 4.7,8.3 4.7,13.1 0,4.6 -0.8,9.1 -2.4,13.5 -1.6,4.4 -4,8.5 -7.3,12.2 -3.3,3.7 -7.2,6.8 -11.9,9.1 -3.8,2 -9.5,3.9 -17.2,6 -7.7,2 -17,3.8 -27.8,5.4 -10.9,1.6 -23,2.7 -36.4,3.4 10,3.5 19.4,7 28.1,10.6 8.7,3.5 16,6.7 22,9.5 6,2.8 10.6,5 14,6.8 4.8,2.5 7.8,4.3 9.3,5.4 1.4,1.1 2.4,2.5 2.8,4.3 0.5,1.8 0.7,4.7 0.7,8.7 0,4.6 -0.3,7.9 -0.8,10.1 -0.6,2.2 -1.7,3.3 -3.6,3.3 -0.6,0 -2.1,-0.6 -4.6,-1.9 -2.5,-1.3 -6,-3.1 -10.4,-5.6 -4.4,-2.4 -8.4,-4.6 -12.1,-6.5 -3.4,-1.9 -9.2,-4.8 -17,-8.5 z m 8.6,-88.2 c 0.1,0.5 0.1,0.9 0.1,1.3 0,0.4 0,0.9 0,1.7 0,1.8 -0.6,3.9 -1.7,6.3 -1.1,2.4 -2.6,4.8 -4.4,7.3 -1.8,2.5 -4.5,6.1 -8,10.7 -3.5,4.7 -6.8,8.9 -9.8,12.8 13.7,-2.6 25.3,-5.1 35,-7.5 9.7,-2.4 17.6,-4.8 23.9,-7.3 6.3,-2.5 11,-5 14.1,-7.7 3.2,-2.7 4.7,-5.5 4.7,-8.4 0,-3.3 -3.3,-5.8 -9.9,-7.7 -6.6,-1.9 -14.7,-2.8 -24.3,-2.8 -2,0 -4,0 -6.2,0.1 -2.2,0.1 -4.8,0.3 -7.8,0.6 -3,0.3 -4.8,0.5 -5.7,0.6 z"
   inkscape:connector-curvature="0"
   style="fill:#00adb5" />
	<path
   id="XMLID_17_"
   class="st1"
   d="m 376,249.6 3.2,2.4 c -0.8,1.8 -1.7,3.4 -2.4,4.8 -0.7,1.4 -1.7,3 -2.8,5 -1.1,2 -2,3.4 -2.5,4.4 -4.9,8.5 -9.5,12.8 -13.8,12.8 -1.8,0 -3.4,-0.7 -4.7,-2.1 -1.3,-1.4 -2,-3.4 -2,-5.9 0,-3.5 1.3,-8.3 3.8,-14.5 2.5,-6.1 6.4,-13.7 11.6,-22.6 5.2,-9 11.8,-19.1 19.8,-30.4 7.9,-11.3 16.9,-23.3 26.9,-35.8 -5.7,-0.8 -12.5,-1.3 -20.4,-1.3 -9,0 -19.1,1 -30.2,3 -11.1,2 -20.8,4.3 -29,7 -8.2,2.6 -12.4,4.6 -12.4,5.8 0,0.5 0.2,0.8 0.5,0.9 0.3,0.2 0.9,0.3 1.6,0.4 0.7,0.1 1.7,0.2 2.9,0.3 7.6,1 11.4,2.2 11.4,3.5 0,0.7 -1.7,1 -5,0.9 -3.3,0 -7.3,0 -12,0 -3.7,0 -6.4,-0.1 -8.1,-0.4 -1.7,-0.3 -2.8,-0.8 -3.3,-1.7 -0.6,-0.8 -0.8,-2.1 -0.8,-3.8 0,-1.1 0.3,-3.5 1,-7.2 1.2,-6.9 3.1,-12.4 5.7,-16.6 2.6,-4.2 6.5,-7.6 11.8,-10.2 5.3,-2.6 12.6,-4.7 21.9,-6.3 15.6,-2.7 28.5,-4 38.8,-4 7.6,0 13.5,0.3 17.9,0.9 4.4,0.6 7.6,1.5 9.6,2.7 2,1.2 3.4,2.3 3.9,3.5 0.6,1.1 1.3,3.1 2.2,5.9 l 3,9 c 0.2,0.6 0.4,1.1 0.5,1.4 0.1,0.4 0.2,0.7 0.3,1.1 0.1,0.4 0.1,0.7 0.1,1.1 0,2.5 -0.6,4.8 -1.7,6.8 -1.1,2 -3.2,5 -6.3,9.1 -3,4 -5.3,7.2 -6.7,9.5 -16.7,27.4 -28.2,47.5 -34.3,60.6 z"
   inkscape:connector-curvature="0"
   style="fill:#00adb5" />
</g>
</svg>