<?xml version="1.0" encoding="utf-8"?>
<!-- Generator: Adobe Illustrator 19.0.0, SVG Export Plug-In . SVG Version: 6.00 Build 0)  -->
<svg version="1.1" id="Warstwa_2" xmlns="http://www.w3.org/2000/svg" xmlns:xlink="http://www.w3.org/1999/xlink" x="0px" y="0px"
	 viewBox="0 0 512 512" style="enable-background:new 0 0 512 512;" xml:space="preserve">
<style type="text/css">
	.st0{fill:#AFAFAF;}
	.st1{fill:#00ADB5;}
</style>
<g id="XMLID_13_">
	<path id="XMLID_19_" class="st0" d="M159.6,260.1l-36.8-18c-9.4,12.8-14.6,21.3-15.7,25.4c-0.8,2.9-2.5,5.4-5.2,7.4
		c-2.7,2-4.6,3-5.8,3c-3.3,0-5-1.3-5-3.8c0-1.4,2-5.5,5.9-12.4c3.9-6.8,9.4-14.8,16.3-24.1c-3.8-1.6-6.2-2.6-7.1-3.1
		c-0.9-0.5-1.3-1.5-1.1-3s1.3-3.8,3.4-6.9c1.8-2.7,3.2-4.6,4.1-5.5c0.9-0.9,2-1.7,3.2-2.2c1.2-0.6,2.5-0.9,3.9-1.1s5.2-0.7,11.5-1.5
		c5.1-7,10.7-14.5,16.7-22.6c6-8.1,10.7-14.4,14.1-18.8c-10.2,1.4-17.4,2.5-21.4,3.4c-4.3,0.8-7.9,1.5-10.8,2.1
		c-2.9,0.6-4.9,1-6.1,1.5c-1.2,0.4-1.8,1-1.8,1.8c0,0.7,0.7,1.2,2.1,1.5c1.4,0.3,3.2,0.4,5.4,0.4c2.2,0,3.9,0.1,5.1,0.2
		c1.2,0.2,1.8,0.5,1.8,1.1c0,0.7-0.8,1-2.4,1.1c-1.6,0.1-6.1,0.3-13.4,0.6c-4.2,0.1-7.7,0.3-10.5,0.4c-2.8,0.1-4.8,0.2-5.9,0.2
		c-1.5,0-2.7-0.5-3.5-1.4c-0.8-0.9-1.3-2.1-1.3-3.6c0-1.1,0.6-3.2,1.9-6.2c1.2-3,3-6,5.3-9.1c2.3-3.1,4.9-5.4,7.8-7.1
		c3.3-2,8.5-4.1,15.5-6.1c7-2.1,14.8-3.7,23.3-5c8.6-1.3,17-1.9,25.4-1.9c5.1,0,10,0.3,14.9,0.9c4.8,0.6,9.2,1.3,13.2,2.1
		c3.9,0.8,7,1.7,9.3,2.5c5.9,2,10.5,4.9,13.6,8.9c3.2,4,4.7,8.3,4.7,13.1c0,4.6-0.8,9.1-2.4,13.5c-1.6,4.4-4,8.5-7.3,12.2
		c-3.3,3.7-7.2,6.8-11.9,9.1c-3.8,2-9.5,3.9-17.2,6c-7.7,2-17,3.8-27.8,5.4c-10.9,1.6-23,2.7-36.4,3.4c10,3.5,19.4,7,28.1,10.6
		c8.7,3.5,16,6.7,22,9.5c6,2.8,10.6,5,14,6.8c4.8,2.5,7.8,4.3,9.3,5.4c1.4,1.1,2.4,2.5,2.8,4.3c0.5,1.8,0.7,4.7,0.7,8.7
		c0,4.6-0.3,7.9-0.8,10.1c-0.6,2.2-1.7,3.3-3.6,3.3c-0.6,0-2.1-0.6-4.6-1.9c-2.5-1.3-6-3.1-10.4-5.6c-4.4-2.4-8.4-4.6-12.1-6.5
		C173.1,266.7,167.4,263.8,159.6,260.1z M168.2,171.9c0.1,0.5,0.1,0.9,0.1,1.3c0,0.4,0,0.9,0,1.7c0,1.8-0.6,3.9-1.7,6.3
		c-1.1,2.4-2.6,4.8-4.4,7.3c-1.8,2.5-4.5,6.1-8,10.7c-3.5,4.7-6.8,8.9-9.8,12.8c13.7-2.6,25.3-5.1,35-7.5c9.7-2.4,17.6-4.8,23.9-7.3
		s11-5,14.1-7.7c3.2-2.7,4.7-5.5,4.7-8.4c0-3.3-3.3-5.8-9.9-7.7c-6.6-1.9-14.7-2.8-24.3-2.8c-2,0-4,0-6.2,0.1
		c-2.2,0.1-4.8,0.3-7.8,0.6S169,171.8,168.2,171.9z"/>
	<path id="XMLID_22_" class="st0" d="M379,249.6l3.2,2.4c-0.8,1.8-1.7,3.4-2.4,4.8s-1.7,3-2.8,5c-1.1,2-2,3.4-2.5,4.4
		c-4.9,8.5-9.5,12.8-13.8,12.8c-1.8,0-3.4-0.7-4.7-2.1c-1.3-1.4-2-3.4-2-5.9c0-3.5,1.3-8.3,3.8-14.5c2.5-6.1,6.4-13.7,11.6-22.6
		c5.2-9,11.8-19.1,19.8-30.4c7.9-11.3,16.9-23.3,26.9-35.8c-5.7-0.8-12.5-1.3-20.4-1.3c-9,0-19.1,1-30.2,3c-11.1,2-20.8,4.3-29,7
		c-8.2,2.6-12.4,4.6-12.4,5.8c0,0.5,0.2,0.8,0.5,0.9c0.3,0.2,0.9,0.3,1.6,0.4c0.7,0.1,1.7,0.2,2.9,0.3c7.6,1,11.4,2.2,11.4,3.5
		c0,0.7-1.7,1-5,0.9c-3.3,0-7.3,0-12,0c-3.7,0-6.4-0.1-8.1-0.4s-2.8-0.8-3.3-1.7c-0.6-0.8-0.8-2.1-0.8-3.8c0-1.1,0.3-3.5,1-7.2
		c1.2-6.9,3.1-12.4,5.7-16.6c2.6-4.2,6.5-7.6,11.8-10.2c5.3-2.6,12.6-4.7,21.9-6.3c15.6-2.7,28.5-4,38.8-4c7.6,0,13.5,0.3,17.9,0.9
		c4.4,0.6,7.6,1.5,9.6,2.7s3.4,2.3,3.9,3.5c0.6,1.1,1.3,3.1,2.2,5.9l3,9c0.2,0.6,0.4,1.1,0.5,1.4c0.1,0.4,0.2,0.7,0.3,1.1
		s0.1,0.7,0.1,1.1c0,2.5-0.6,4.8-1.7,6.8c-1.1,2-3.2,5-6.3,9.1c-3,4-5.3,7.2-6.7,9.5C396.5,216.4,385.1,236.5,379,249.6z"/>
</g>
<g id="XMLID_2_">
	<path id="XMLID_6_" class="st0" d="M299.1,272.5c0,0,1.6-6,7.8-5.8c0,0,2.6,0.5-1.1,6.4C305.8,273.1,300.9,275.4,299.1,272.5z"/>
	<circle id="XMLID_4_" class="st0" cx="291.6" cy="266.8" r="1.5"/>
	<circle id="XMLID_3_" class="st0" cx="304.3" cy="257.3" r="1.5"/>
	<path id="XMLID_7_" class="st0" d="M286.7,290c0,0-15.7-11.2-18.6-23.9c0,0-2.2,2-20.5-24.3s-10.2-29.7-10.2-29.7
		s9.5-1.7,31.6,30.8l6.4,7.4c0,0,2.6-9,19.3-14.7c0,0-32.4-37.5-25.1-47.3c7.3-9.8,43,45.4,43,45.4s11.8,8.2,16.9,24.9
		c0,0,23.9-43.7-21.4-77.5c0,0-33.3-21.9-68.1,3.3s-20.3,65-20.3,65s6.7,24,30.4,36.2S286.7,290,286.7,290z"/>
</g>
<g id="XMLID_8_">
	<path id="XMLID_5_" class="st1" d="M283.8,290c0,0-15.7-11.2-18.6-23.9c0,0-2.2,2-20.5-24.3s-10.2-29.7-10.2-29.7
		s9.5-1.7,31.6,30.8l6.4,7.4c0,0,2.6-9,19.3-14.7c0,0-32.4-37.5-25.1-47.3c7.3-9.8,43,45.4,43,45.4s11.8,8.2,16.9,24.9
		c0,0,23.9-43.7-21.4-77.5c0,0-33.3-21.9-68.1,3.3s-20.3,65-20.3,65s6.7,24,30.4,36.2S283.8,290,283.8,290z"/>
	<path id="XMLID_10_" class="st1" d="M297.6,272.5c0,0,1.6-6,7.8-5.8c0,0,2.6,0.5-1.1,6.4C304.3,273.1,299.4,275.4,297.6,272.5z"/>
	<circle id="XMLID_9_" class="st1" cx="290.1" cy="266.8" r="1.5"/>
	<circle id="XMLID_11_" class="st1" cx="302.8" cy="257.3" r="1.5"/>
</g>
<g id="XMLID_1_">
	<path id="XMLID_14_" class="st1" d="M156.6,260.1l-36.8-18c-9.4,12.8-14.6,21.3-15.7,25.4c-0.8,2.9-2.5,5.4-5.2,7.4
		c-2.7,2-4.6,3-5.8,3c-3.3,0-5-1.3-5-3.8c0-1.4,2-5.5,5.9-12.4c3.9-6.8,9.4-14.8,16.3-24.1c-3.8-1.6-6.2-2.6-7.1-3.1
		c-0.9-0.5-1.3-1.5-1.1-3s1.3-3.8,3.4-6.9c1.8-2.7,3.2-4.6,4.1-5.5c0.9-0.9,2-1.7,3.2-2.2c1.2-0.6,2.5-0.9,3.9-1.1s5.2-0.7,11.5-1.5
		c5.1-7,10.7-14.5,16.7-22.6c6-8.1,10.7-14.4,14.1-18.8c-10.2,1.4-17.4,2.5-21.4,3.4c-4.3,0.8-7.9,1.5-10.8,2.1
		c-2.9,0.6-4.9,1-6.1,1.5c-1.2,0.4-1.8,1-1.8,1.8c0,0.7,0.7,1.2,2.1,1.5c1.4,0.3,3.2,0.4,5.4,0.4c2.2,0,3.9,0.1,5.1,0.2
		c1.2,0.2,1.8,0.5,1.8,1.1c0,0.7-0.8,1-2.4,1.1c-1.6,0.1-6.1,0.3-13.4,0.6c-4.2,0.1-7.7,0.3-10.5,0.4c-2.8,0.1-4.8,0.2-5.9,0.2
		c-1.5,0-2.7-0.5-3.5-1.4c-0.8-0.9-1.3-2.1-1.3-3.6c0-1.1,0.6-3.2,1.9-6.2c1.2-3,3-6,5.3-9.1c2.3-3.1,4.9-5.4,7.8-7.1
		c3.3-2,8.5-4.1,15.5-6.1c7-2.1,14.8-3.7,23.3-5c8.6-1.3,17-1.9,25.4-1.9c5.1,0,10,0.3,14.9,0.9c4.8,0.6,9.2,1.3,13.2,2.1
		c3.9,0.8,7,1.7,9.3,2.5c5.9,2,10.5,4.9,13.6,8.9c3.2,4,4.7,8.3,4.7,13.1c0,4.6-0.8,9.1-2.4,13.5c-1.6,4.4-4,8.5-7.3,12.2
		c-3.3,3.7-7.2,6.8-11.9,9.1c-3.8,2-9.5,3.9-17.2,6c-7.7,2-17,3.8-27.8,5.4c-10.9,1.6-23,2.7-36.4,3.4c10,3.5,19.4,7,28.1,10.6
		c8.7,3.5,16,6.7,22,9.5c6,2.8,10.6,5,14,6.8c4.8,2.5,7.8,4.3,9.3,5.4c1.4,1.1,2.4,2.5,2.8,4.3c0.5,1.8,0.7,4.7,0.7,8.7
		c0,4.6-0.3,7.9-0.8,10.1c-0.6,2.2-1.7,3.3-3.6,3.3c-0.6,0-2.1-0.6-4.6-1.9c-2.5-1.3-6-3.1-10.4-5.6c-4.4-2.4-8.4-4.6-12.1-6.5
		C170.2,266.7,164.4,263.8,156.6,260.1z M165.2,171.9c0.1,0.5,0.1,0.9,0.1,1.3c0,0.4,0,0.9,0,1.7c0,1.8-0.6,3.9-1.7,6.3
		c-1.1,2.4-2.6,4.8-4.4,7.3c-1.8,2.5-4.5,6.1-8,10.7c-3.5,4.7-6.8,8.9-9.8,12.8c13.7-2.6,25.3-5.1,35-7.5c9.7-2.4,17.6-4.8,23.9-7.3
		s11-5,14.1-7.7c3.2-2.7,4.7-5.5,4.7-8.4c0-3.3-3.3-5.8-9.9-7.7c-6.6-1.9-14.7-2.8-24.3-2.8c-2,0-4,0-6.2,0.1
		c-2.2,0.1-4.8,0.3-7.8,0.6S166.1,171.8,165.2,171.9z"/>
	<path id="XMLID_17_" class="st1" d="M376,249.6l3.2,2.4c-0.8,1.8-1.7,3.4-2.4,4.8s-1.7,3-2.8,5c-1.1,2-2,3.4-2.5,4.4
		c-4.9,8.5-9.5,12.8-13.8,12.8c-1.8,0-3.4-0.7-4.7-2.1c-1.3-1.4-2-3.4-2-5.9c0-3.5,1.3-8.3,3.8-14.5c2.5-6.1,6.4-13.7,11.6-22.6
		c5.2-9,11.8-19.1,19.8-30.4c7.9-11.3,16.9-23.3,26.9-35.8c-5.7-0.8-12.5-1.3-20.4-1.3c-9,0-19.1,1-30.2,3c-11.1,2-20.8,4.3-29,7
		c-8.2,2.6-12.4,4.6-12.4,5.8c0,0.5,0.2,0.8,0.5,0.9c0.3,0.2,0.9,0.3,1.6,0.4c0.7,0.1,1.7,0.2,2.9,0.3c7.6,1,11.4,2.2,11.4,3.5
		c0,0.7-1.7,1-5,0.9c-3.3,0-7.3,0-12,0c-3.7,0-6.4-0.1-8.1-0.4s-2.8-0.8-3.3-1.7c-0.6-0.8-0.8-2.1-0.8-3.8c0-1.1,0.3-3.5,1-7.2
		c1.2-6.9,3.1-12.4,5.7-16.6c2.6-4.2,6.5-7.6,11.8-10.2c5.3-2.6,12.6-4.7,21.9-6.3c15.6-2.7,28.5-4,38.8-4c7.6,0,13.5,0.3,17.9,0.9
		c4.4,0.6,7.6,1.5,9.6,2.7s3.4,2.3,3.9,3.5c0.6,1.1,1.3,3.1,2.2,5.9l3,9c0.2,0.6,0.4,1.1,0.5,1.4c0.1,0.4,0.2,0.7,0.3,1.1
		s0.1,0.7,0.1,1.1c0,2.5-0.6,4.8-1.7,6.8c-1.1,2-3.2,5-6.3,9.1c-3,4-5.3,7.2-6.7,9.5C393.6,216.4,382.1,236.5,376,249.6z"/>
</g>
</svg>
