<?xml version="1.0" encoding="utf-8"?>
<!-- Generator: Adobe Illustrator 19.0.0, SVG Export Plug-In . SVG Version: 6.00 Build 0)  -->
<svg version="1.1" id="Warstwa_4" xmlns="http://www.w3.org/2000/svg" xmlns:xlink="http://www.w3.org/1999/xlink" x="0px" y="0px"
	 viewBox="0 0 512 512" style="enable-background:new 0 0 512 512;" xml:space="preserve">
<style type="text/css">
	.st0{fill:#00ADB5;stroke:#000000;stroke-miterlimit:10;}
</style>
<path id="XMLID_2_" class="st0" d="M335.6,484c0,0-164.3,71.5-286.8-102.8c0,0-113.5-180.7,66.7-322.5c0,0,197.2-136,346.4,68.8
	c0,0,68.4,105.5,21.1,212.5c0,0,0-52.3-84-96c0,0-169.4-185.7-194-152.7S329.6,261,335.6,266.7c0,0-42,11-72.7,68.7
	c0,0-159.4-164.3-174-127.3s128,179,156,190C245,398,272.9,460.4,335.6,484z"/>
</svg>
